# xmcd
#
# Track frame offsets:
#	150
#	10269
#	22542
#	36751
#	53915
#	69977
#	83353
#	98030
#	109489
#	128036
#
# Disc length: 1869 seconds
#
# Revision: 0
# Processed by: cddbd v1.5PL3 Copyright (c) Steve Scherf et al.
# Submitted via: dBpowerAMP V4.0
#
DISCID=6c074b0a
DTITLE=Various Artist - Put The Hammer Down!
DYEAR=1976
DGENRE=Country
TTITLE0=Merle Haggard - Movin' On
TTITLE1=Dick Curless - Long, Lonesome Highway
TTITLE2=Red Simpson - I'm A Truck
TTITLE3=C.W. McCall - Convoy
TTITLE4=Red Sovine - Phantom 309
TTITLE5=Merle Haggard - White Line Fever
TTITLE6=Dick Curless - Tombstone Every Mile
TTITLE7=Red Simpson - Nitro Express
TTITLE8=Cledus Maggard and The Citizens Band - The White Knight
TTITLE9=Glen Campbell - A Place In The Sun
EXTD=Trucker Favorites
EXTT0=
EXTT1=
EXTT2=
EXTT3=
EXTT4=
EXTT5=
EXTT6=
EXTT7=
EXTT8=
EXTT9=
PLAYORDER=
